<svg width="8" height="13" viewBox="0 0 8 13" fill="none" xmlns="http://www.w3.org/2000/svg">
<path d="M0.12072 6.89473L4.3556 12.8038C4.44594 12.9291 4.57204 13 4.70568 13L7.52893 13C7.71432 13 7.88278 12.8629 7.959 12.6502C8.03429 12.4363 8.00324 12.1869 7.87901 12.0144L3.9274 6.5L7.87901 0.986818C8.00324 0.813091 8.03523 0.563727 7.95901 0.351001C7.88278 0.137092 7.71432 9.29699e-07 7.52893 9.14139e-07L4.70568 6.77195e-07C4.57205 6.6598e-07 4.44594 0.0720908 4.3556 0.195L0.12072 6.10409C-0.0402058 6.32864 -0.0402059 6.67136 0.12072 6.89473Z" fill="white"/>
</svg>
