<svg width="54" height="47" viewBox="0 0 54 47" fill="none" xmlns="http://www.w3.org/2000/svg" transform="translate(5)">
<g filter="url(#filter0_d)">
<path d="M4.66618 18.1873C4.69399 18.1904 4.72196 18.192 4.74995 18.192C5.15007 18.1914 5.48536 17.8862 5.52737 17.4844C6.27964 10.3721 11.1766 4.40623 17.958 2.3403C24.7394 0.274365 32.0867 2.51013 36.6087 8.01566C36.7864 8.23559 37.0672 8.34242 37.3445 8.29556C37.6217 8.2487 37.8528 8.05536 37.9499 7.78898C38.047 7.5226 37.9953 7.2241 37.8143 7.00688C32.8904 1.01149 24.8897 -1.42318 17.5052 0.8267C10.1207 3.07658 4.7886 9.57347 3.97018 17.3184C3.92499 17.7524 4.23649 18.1412 4.66618 18.1873Z" fill="#fff"/>
<path d="M41.5342 24.5307C41.6479 24.1094 41.4018 23.6747 40.9846 23.5599C40.5673 23.4451 40.1369 23.6935 40.0232 24.1149C37.9094 31.8211 30.9631 37.1559 23.0443 37.1547C19.0607 37.1755 15.191 35.8132 12.0837 33.2959C11.7458 33.0232 11.2529 33.0788 10.9829 33.42C10.7129 33.7612 10.7679 34.2589 11.1058 34.5315C14.4903 37.2737 18.7052 38.758 23.0443 38.7358C31.6694 38.7372 39.2346 32.9251 41.5342 24.5307Z" fill="#fff"/>
<path d="M35.806 12.4366C36.2174 13.209 36.558 14.0177 36.8238 14.8526C37.0872 15.6939 37.2746 16.5576 37.3836 17.4331C36.0213 18.1201 34.3772 18.8482 32.5249 19.5858L32.5022 19.5155C32.1373 18.3778 31.641 16.8196 30.0752 16.452C29.6768 16.3704 29.2713 16.3288 28.8648 16.3279C28.1665 16.3034 27.7218 16.2678 27.4337 15.9816C26.9752 15.5179 26.6806 14.9148 26.5952 14.2652C26.5156 13.8534 26.7044 13.436 27.0649 13.2272C27.2307 13.1656 27.4015 13.1185 27.5754 13.0865C28.1261 13.0142 28.6402 12.7685 29.0449 12.3845C29.2375 12.1789 29.4277 11.9662 29.6187 11.752C30.1006 11.1682 30.6428 10.6382 31.2362 10.1708C31.7824 9.80073 32.3586 9.47782 32.9586 9.20553C33.0713 9.15019 33.1825 9.09169 33.2953 9.03635C34.2906 10.0412 35.1364 11.1865 35.806 12.4366ZM27.8846 5.58152C26.0865 6.6625 24.1681 7.52495 22.1694 8.1509C20.8189 8.54619 17.4039 9.32886 14.8735 8.19991C14.6464 8.08714 14.4357 7.94351 14.2472 7.773C18.1279 4.74978 23.2638 3.92433 27.8823 5.58152H27.8846ZM13.0415 8.81578C13.3969 9.15178 13.8004 9.43164 14.2386 9.64588C15.4323 10.143 16.715 10.3852 18.0059 10.3574C19.561 10.3365 21.1062 10.1047 22.6 9.66802C25.0888 8.87467 27.4671 7.7639 29.6775 6.36261C30.5111 6.79786 31.3008 7.3139 32.0356 7.90345C31.4365 8.18254 30.8619 8.51234 30.3179 8.8893C29.6315 9.42069 29.0041 10.0256 28.4467 10.6934C28.2643 10.8982 28.0835 11.1006 27.8987 11.2966C27.6997 11.4331 27.4702 11.5173 27.2309 11.5417C26.9617 11.5929 26.698 11.6699 26.4433 11.7718C25.4394 12.2394 24.8642 13.3226 25.0341 14.4257C25.1543 15.4426 25.6121 16.3884 26.3329 17.109C27.0223 17.6929 27.9114 17.9797 28.8084 17.9074C29.1133 17.9074 29.4176 17.9358 29.7174 17.992C30.3727 18.1454 30.6569 18.8878 31.0131 20.0017C31.0295 20.0531 31.046 20.1021 31.0624 20.1527C28.745 21.0318 26.1708 21.9133 23.4682 22.7458C23.2717 22.8074 23.0768 22.8636 22.8881 22.9205C21.8923 22.1873 20.62 21.9519 19.4315 22.281C18.243 22.6101 17.2676 23.4679 16.7815 24.6116C16.2193 24.7515 15.6658 24.8859 15.1272 25.0108C15.0708 24.9033 15.0184 24.7958 14.962 24.6874C14.4775 23.8907 14.1331 23.0152 13.9442 22.0999C13.8135 21.1512 14.5063 20.5843 15.6666 19.7606C15.9946 19.5234 16.3336 19.2862 16.6351 19.0253C17.9045 17.9571 18.434 16.2354 17.9871 14.6289C17.4822 13.2699 16.242 12.7663 15.247 12.3623C15.0489 12.2833 14.8555 12.2042 14.6637 12.1164C13.458 11.5702 12.4317 11.0776 11.4937 10.5946C11.9612 9.96039 12.4789 9.36551 13.0415 8.81578ZM17.9997 26.2449C17.9997 24.8477 19.1213 23.715 20.505 23.715C21.8886 23.715 23.0102 24.8477 23.0102 26.2449C23.0102 27.6421 21.8886 28.7747 20.505 28.7747C19.1226 28.7717 18.0027 27.6408 17.9997 26.2449ZM10.6044 11.9148C11.6112 12.4382 12.7096 12.9695 14.0115 13.5593C14.219 13.6533 14.4351 13.7411 14.652 13.8296C15.6463 14.232 16.2671 14.5245 16.5121 15.1847C16.727 16.1665 16.3771 17.1869 15.6071 17.8244C15.3628 18.0363 15.0677 18.2466 14.7561 18.468C13.642 19.2585 12.1169 20.3472 12.387 22.3165C12.5884 23.3925 12.9779 24.4236 13.5371 25.3618C12.308 25.6243 11.1665 25.8401 10.1417 26.0022C9.6842 25.0998 9.32107 24.1518 9.05812 23.1735C8.82574 22.3099 8.67656 21.4256 8.61264 20.533C8.57741 20.1701 8.56097 19.789 8.56097 19.3668C8.5625 16.742 9.26867 14.1667 10.6044 11.9148ZM0.847021 28.0474C0.510372 26.9232 2.36585 24.6116 7.19637 21.8611C7.25196 22.2311 7.32633 22.5924 7.40697 22.9521C4.255 24.572 3.0963 25.7065 3.42826 26.8165C3.61537 27.4331 4.14618 27.9652 6.25141 27.9652C7.44537 27.9425 8.63638 27.8369 9.81597 27.649C11.6707 27.3794 13.9434 26.9224 16.4409 26.3184C16.4537 27.0819 16.6786 27.8265 17.0899 28.4672C15.3354 28.8396 13.6318 29.1368 12.0159 29.3471C4.85314 30.2768 1.24474 29.3645 0.847021 28.0474ZM25.117 33.8321C25.2225 33.4626 25.3603 33.1033 25.5288 32.7585C26.3415 31.2026 28.8374 30.4832 30.3633 30.9251C30.6767 31.0527 30.9676 31.2308 31.2245 31.4524C29.3952 32.7091 27.3042 33.5241 25.1131 33.8344L25.117 33.8321ZM32.5131 30.4595C32.492 30.4429 32.4732 30.4302 32.4521 30.4128C31.9653 29.9759 31.4018 29.6348 30.7907 29.4072C28.6174 28.7747 25.3535 29.6981 24.14 32.0232C23.8819 32.5504 23.6746 33.1013 23.5207 33.6684C23.4894 33.7728 23.4526 33.8748 23.4205 33.9783C23.2944 33.9783 23.1715 33.9949 23.0447 33.9949C19.6981 34.0049 16.4536 32.8325 13.873 30.6808C15.3542 30.4437 16.8926 30.1456 18.4655 29.7891C19.3846 30.3444 20.4854 30.5055 21.5228 30.2364C22.5602 29.9673 23.4478 29.2904 23.9881 28.3565C24.3459 28.2537 24.7029 28.151 25.0654 28.0403C29.1489 26.8108 33.1284 25.2528 36.9655 23.3814C36.2033 26.1327 34.6529 28.5951 32.5092 30.4595H32.5131ZM37.7359 21.2097C33.5367 23.3957 29.142 25.175 24.6105 26.524C24.5917 26.5303 24.5729 26.535 24.5533 26.5406C24.5604 26.4425 24.5831 26.3485 24.5831 26.2481C24.5793 25.5363 24.3903 24.8381 24.0351 24.2234C29.0361 22.7548 33.9074 20.8685 38.5986 18.5842L38.6135 18.5755C41.5666 17.0418 42.6846 15.9262 42.3535 14.8479C42.052 13.8692 40.7876 13.5513 38.0913 13.7711C37.9708 13.4367 37.8455 13.1055 37.6999 12.7805C42.7433 12.5434 44.8838 13.4873 45.168 14.4281C45.5375 15.6353 43.3798 18.1992 37.732 21.2065L37.7359 21.2097Z" fill="#fff"/>
</g>
<defs>
<filter id="filter0_d" x="0.808594" y="0" width="52.3996" height="46.7361" filterUnits="userSpaceOnUse" color-interpolation-filters="sRGB">
<feFlood flood-opacity="0" result="BackgroundImageFix"/>
<feColorMatrix in="SourceAlpha" type="matrix" values="0 0 0 0 0 0 0 0 0 0 0 0 0 0 0 0 0 0 127 0"/>
<feOffset dx="4" dy="4"/>
<feGaussianBlur stdDeviation="2"/>
<feColorMatrix type="matrix" values="0 0 0 0 0 0 0 0 0 0 0 0 0 0 0 0 0 0 0.15 0"/>
<feBlend mode="normal" in2="BackgroundImageFix" result="effect1_dropShadow"/>
<feBlend mode="normal" in="SourceGraphic" in2="effect1_dropShadow" result="shape"/>
</filter>
</defs>
</svg>
