<svg width="23" height="23" viewBox="0 0 23 23" fill="none" xmlns="http://www.w3.org/2000/svg">
<path d="M12.8713 0C18.4561 0 23 4.54389 23 10.1287C23 15.7139 18.4561 20.2574 12.8713 20.2574C7.28616 20.2574 2.74258 15.7139 2.74258 10.1287C2.74258 4.54389 7.28616 0 12.8713 0ZM12.8713 18.3876C17.4252 18.3876 21.1301 14.6826 21.1301 10.1288C21.1301 5.5749 17.4252 1.86992 12.8713 1.86992C8.31743 1.86992 4.6125 5.57485 4.6125 10.1287C4.6125 14.6826 8.31743 18.3876 12.8713 18.3876Z" fill="#081D3F"/>
<path d="M0.274007 21.4039L5.63447 16.0435C5.99973 15.6782 6.59126 15.6782 6.95652 16.0435C7.32178 16.4084 7.32178 17.0006 6.95652 17.3655L1.59606 22.726C1.41346 22.9086 1.17438 22.9999 0.935035 22.9999C0.696005 22.9999 0.45666 22.9086 0.274007 22.726C-0.0912543 22.361 -0.0912543 21.7689 0.274007 21.4039Z" fill="#081D3F"/>
</svg>
