<svg width="53" height="41" viewBox="0 0 53 41" fill="none" xmlns="http://www.w3.org/2000/svg" transform="translate(6)">
<g filter="url(#filter0_d)">
<path d="M1.50003 16.5001C1.50003 10.8908 3.68482 5.61751 7.65081 1.65082C7.9441 1.35832 7.9441 0.883534 7.65081 0.59033C7.35831 0.297038 6.88352 0.297038 6.59032 0.59033C2.3408 4.83976 0 10.4903 0 16.5001C0 22.5099 2.3408 28.1604 6.59023 32.4099C6.73648 32.5561 6.92852 32.6296 7.12047 32.6296C7.31251 32.6296 7.50447 32.5561 7.65072 32.4099C7.94401 32.1166 7.94401 31.6419 7.65072 31.3494C3.68473 27.3825 1.50003 22.1093 1.50003 16.5001Z" fill="#081D3F"/>
<path d="M38.4094 0.59033C38.1161 0.297038 37.6421 0.297038 37.3489 0.59033C37.0557 0.883534 37.0557 1.35762 37.3489 1.65082C41.3156 5.6176 43.4996 10.8909 43.4996 16.5001C43.4996 22.1092 41.3156 27.3826 37.3488 31.3493C37.0556 31.6418 37.0556 32.1166 37.3488 32.4098C37.4951 32.556 37.6871 32.6295 37.8791 32.6295C38.0711 32.6295 38.263 32.556 38.4093 32.4098C42.6595 28.1603 44.9995 22.5098 44.9995 16.5C44.9995 10.4902 42.6596 4.83985 38.4094 0.59033Z" fill="#081D3F"/>
<path d="M22.5 24.75C21.6728 24.75 21 25.4227 21 26.25C21 27.0773 21.6728 27.7501 22.5 27.7501C23.3273 27.7501 24.0001 27.0773 24.0001 26.25C24.0001 25.4227 23.3273 24.75 22.5 24.75Z" fill="#081D3F"/>
<path d="M22.5005 19.5001C22.9137 19.5001 23.2504 19.1634 23.2504 18.7501V6.00009C23.2504 5.58683 22.9137 5.25012 22.5005 5.25012C22.0872 5.25012 21.7505 5.58683 21.7505 6.00009V18.7501C21.7505 19.1633 22.0872 19.5001 22.5005 19.5001Z" fill="#081D3F"/>
<path d="M22.5 0C13.4017 0 6 7.40181 6 16.5001C6 25.5984 13.4017 33.0001 22.5 33.0001C31.5983 33.0001 39 25.5983 39 16.5001C39 7.4019 31.5983 0 22.5 0ZM20.25 6.00004C20.25 4.75955 21.2595 3.75004 22.5 3.75004C23.7405 3.75004 24.75 4.75955 24.75 6.00004V18.7501C24.75 19.9906 23.7405 21.0001 22.5 21.0001C21.2595 21.0001 20.25 19.9906 20.25 18.7501V6.00004ZM22.5 29.2501C20.8455 29.2501 19.5 27.9045 19.5 26.2501C19.5 24.5956 20.8455 23.2501 22.5 23.2501C24.1545 23.2501 25.5 24.5956 25.5 26.2501C25.5 27.9045 24.1545 29.2501 22.5 29.2501Z" fill="#081D3F"/>
</g>
<defs>
<filter id="filter0_d" x="0" y="0" width="52.9995" height="41.0001" filterUnits="userSpaceOnUse" color-interpolation-filters="sRGB">
<feFlood flood-opacity="0" result="BackgroundImageFix"/>
<feColorMatrix in="SourceAlpha" type="matrix" values="0 0 0 0 0 0 0 0 0 0 0 0 0 0 0 0 0 0 127 0"/>
<feOffset dx="4" dy="4"/>
<feGaussianBlur stdDeviation="2"/>
<feColorMatrix type="matrix" values="0 0 0 0 0 0 0 0 0 0 0 0 0 0 0 0 0 0 0.15 0"/>
<feBlend mode="normal" in2="BackgroundImageFix" result="effect1_dropShadow"/>
<feBlend mode="normal" in="SourceGraphic" in2="effect1_dropShadow" result="shape"/>
</filter>
</defs>
</svg>
