<svg width="13" height="8" viewBox="0 0 13 8" fill="none" xmlns="http://www.w3.org/2000/svg">
<path d="M6.89473 7.8793L12.8038 3.64441C12.9291 3.55407 13 3.42797 13 3.29433L13 0.471072C13 0.285678 12.8629 0.117224 12.6502 0.0409958C12.4363 -0.0342911 12.1869 -0.00323522 12.0144 0.120988L6.5 4.07261L0.986818 0.120988C0.813091 -0.00323588 0.563727 -0.0352329 0.351001 0.0409951C0.137092 0.117223 9.41187e-07 0.285678 9.33083e-07 0.471072L8.09675e-07 3.29433C8.03833e-07 3.42796 0.0720909 3.55407 0.195 3.64441L6.10409 7.8793C6.32864 8.04023 6.67136 8.04023 6.89473 7.8793Z" fill="#081D3F"/>
</svg>
