<svg width="47" height="47" viewBox="0 0 47 47" fill="none" xmlns="http://www.w3.org/2000/svg" transform="translate(5)">
<g filter="url(#filter0_d)">
<path d="M23.5506 35.1287L18.2899 31.6208C18.1148 31.5054 17.8804 31.5436 17.7509 31.7086L16.2188 33.678C15.6814 34.381 14.7085 34.5812 13.9373 34.1474L13.6546 33.9928C11.8381 33.0039 10.1988 31.7196 8.80405 30.1924C7.27768 28.7979 5.99368 27.1594 5.00445 25.3439L4.84914 25.0591C4.41695 24.2877 4.6169 23.3159 5.3185 22.7777L7.28865 21.2456C7.45355 21.1166 7.49141 20.8824 7.37571 20.708L3.8686 15.4459C3.75107 15.2665 3.51312 15.2116 3.32886 15.3212L1.12891 16.6444C0.68781 16.9021 0.363401 17.3202 0.223553 17.8115C-0.786236 21.4844 1.64702 26.4951 7.07415 31.9223C12.5013 37.3495 17.5127 39.7813 21.1856 38.775C21.6768 38.635 22.095 38.3106 22.3528 37.8697L23.6718 35.6697C23.7834 35.4862 23.7299 35.2472 23.5506 35.1287Z" fill="#081D3F"/>
<path d="M38.9223 15.7686C38.0794 6.82598 30.5686 -0.00565291 21.5864 0.000212194C13.2133 -0.0409959 6.01417 5.92405 4.49854 14.159C4.70877 14.2916 4.88906 14.4666 5.02784 14.6729L8.53495 19.935C9.05321 20.7172 8.88274 21.7665 8.14359 22.3445L6.17413 23.8768C6.01768 23.9945 5.97167 24.2095 6.0662 24.3809L6.22775 24.6762C7.1549 26.3742 8.35854 27.9056 9.78925 29.2078C11.0918 30.6388 12.6238 31.8428 14.3222 32.77L14.6154 32.9309C14.7872 33.0252 15.0021 32.9792 15.1203 32.823L16.6524 30.8535C17.2312 30.1156 18.2792 29.9451 19.062 30.4614L24.3241 33.97C24.5302 34.1087 24.7051 34.2887 24.838 34.4985C33.6631 32.8259 39.7651 24.7112 38.9223 15.7686ZM20.89 14.09C20.8908 14.6066 20.6993 15.1051 20.3531 15.4884L15.4893 20.8926H20.1936C20.5782 20.8926 20.89 21.2044 20.89 21.5891C20.89 21.9737 20.5782 22.2855 20.1936 22.2855H15.4893C14.9393 22.2853 14.4409 21.9615 14.2173 21.4591C13.9935 20.9567 14.0865 20.3697 14.4544 19.9608L19.3182 14.5553C19.4332 14.4276 19.497 14.2619 19.4972 14.0901V12.5357H15.3187V13.9285C15.3187 14.3131 15.007 14.625 14.6223 14.625C14.2377 14.625 13.9259 14.3132 13.9259 13.9285V12.5357C13.9259 11.7665 14.5495 11.1428 15.3187 11.1428H19.4972C20.2665 11.1428 20.8901 11.7665 20.8901 12.5357V14.09H20.89ZM21.5864 3.48226C15.9896 3.49201 10.9392 6.84243 8.75432 11.9952C8.64524 12.2527 8.39266 12.4201 8.11289 12.42C8.01973 12.4199 7.92757 12.401 7.84195 12.3643C7.67171 12.2924 7.53697 12.1558 7.4675 11.9846C7.39803 11.8134 7.3994 11.6215 7.47146 11.4513C9.86702 5.77734 15.4274 2.08933 21.5863 2.08949C21.9709 2.08949 22.2828 2.40125 22.2828 2.78591C22.2828 3.17049 21.9711 3.48226 21.5864 3.48226ZM24.1061 19.4998C23.6234 19.4998 23.1752 19.2499 22.9214 18.8393C22.6676 18.4288 22.6444 17.9161 22.8602 17.4843L25.8346 11.5279C26.0065 11.1837 26.4249 11.044 26.7692 11.2159C27.1134 11.3878 27.2531 11.8062 27.0812 12.1505L24.1061 18.1069H27.1578V16.7141C27.1578 16.3295 27.4696 16.0177 27.8542 16.0177C28.2389 16.0177 28.5507 16.3294 28.5507 16.7141V18.1069H29.2471C29.6317 18.1069 29.9435 18.4187 29.9435 18.8034C29.9435 19.1879 29.6318 19.4998 29.2471 19.4998H28.5507V21.5891C28.5507 21.9736 28.2389 22.2855 27.8542 22.2855C27.4696 22.2855 27.1578 21.9737 27.1578 21.5891V19.4998H24.1061ZM32.4157 28.2391C31.0197 29.639 29.3657 30.7551 27.545 31.5255C27.3159 31.6225 27.0523 31.5899 26.8537 31.44C26.6552 31.2901 26.5516 31.0456 26.5821 30.7986C26.6127 30.5516 26.7726 30.3397 27.0018 30.2427C32.161 28.0655 35.5147 23.0103 35.5148 17.4106C35.5148 17.026 35.8265 16.7142 36.2112 16.7142C36.5958 16.7142 36.9076 17.0259 36.9076 17.4106C36.9102 21.4739 35.2937 25.3708 32.4157 28.2391Z" fill="#081D3F"/>
</g>
<defs>
<filter id="filter0_d" x="0" y="0" width="47" height="46.9973" filterUnits="userSpaceOnUse" color-interpolation-filters="sRGB">
<feFlood flood-opacity="0" result="BackgroundImageFix"/>
<feColorMatrix in="SourceAlpha" type="matrix" values="0 0 0 0 0 0 0 0 0 0 0 0 0 0 0 0 0 0 127 0"/>
<feOffset dx="4" dy="4"/>
<feGaussianBlur stdDeviation="2"/>
<feColorMatrix type="matrix" values="0 0 0 0 0 0 0 0 0 0 0 0 0 0 0 0 0 0 0.15 0"/>
<feBlend mode="normal" in2="BackgroundImageFix" result="effect1_dropShadow"/>
<feBlend mode="normal" in="SourceGraphic" in2="effect1_dropShadow" result="shape"/>
</filter>
</defs>
</svg>
